<?xml version="1.0" encoding="UTF-8"?>
<svg version="1.1" xmlns="http://www.w3.org/2000/svg" width="401" height="400">
<path d="M0 0 C10.32512212 7.08351401 17.34804574 17.08418354 20.5625 29.25 C22.84421226 42.28163499 21.21072537 55.28730408 13.90234375 66.4375 C6.29350399 76.97548309 -2.91122609 84.39862759 -15.83984375 87.375 C-30.82316554 89.58016694 -44.53497619 86.81457135 -56.8125 77.8125 C-66.19109743 70.20873674 -71.47711428 59.52878904 -73.8125 47.8125 C-75.34901053 32.93343379 -71.66598254 19.499105 -62.22265625 7.8515625 C-45.98294372 -9.64911594 -20.10103146 -11.8891933 0 0 Z " fill="#389B98" transform="translate(226.8125,290.1875)"/>
<path d="M0 0 C10.32512212 7.08351401 17.34804574 17.08418354 20.5625 29.25 C22.85670372 42.35297795 21.17171505 55.29994644 13.83984375 66.50390625 C5.59606582 78.02180875 -4.71668995 85.11771278 -18.8125 87.8125 C-33.69793322 89.33558758 -47.11877102 85.67175835 -58.7734375 76.22265625 C-67.83803932 67.81118076 -72.93420309 56.31764053 -74.1953125 44.10546875 C-74.63783592 29.78246069 -70.38947506 16.65251077 -60.5625 6.0625 C-43.67543497 -9.60781143 -19.65499096 -11.62537292 0 0 Z " fill="#389B98" transform="translate(226.8125,29.1875)"/>
<path d="M0 0 C9.03604594 8.34263234 14.59702692 19.89490495 15.453125 32.16015625 C15.68730916 47.90904124 11.40224892 59.50924538 0.62890625 70.95703125 C-9.46034687 80.68181217 -20.98838986 83.88363291 -34.73950195 83.72045898 C-48.71567595 83.19692834 -59.70493394 77.16808081 -69.2265625 67.04296875 C-77.66822013 57.10778708 -80.70925962 45.0692468 -80.12890625 32.17578125 C-78.80819399 18.49211298 -72.72217048 6.77417951 -62.1484375 -2.03125 C-42.8088236 -15.8902567 -18.55074092 -14.55202566 0 0 Z " fill="#389B98" transform="translate(363.75,163.75)"/>
<path d="M0 0 C8.33339434 6.57497168 14.78758091 16.83018242 16.87890625 27.30859375 C18.39491842 41.68702172 17.02213476 54.62006839 7.97265625 66.46875 C-0.0832004 76.12895099 -10.05456752 83.65343224 -22.93994141 84.87597656 C-37.00092522 85.8275392 -49.76648503 84.17418275 -60.84765625 74.6171875 C-71.93032237 64.00521376 -77.74652246 52.74787313 -78.18359375 37.3046875 C-77.96026285 25.31460969 -73.87701517 13.26913797 -65.66015625 4.3359375 C-46.55509588 -13.35084328 -21.17907834 -14.80693825 0 0 Z " fill="#389B98" transform="translate(99.87109375,162.3203125)"/>
<path d="M0 0 C2.01624604 1.4232325 3.84223096 2.93682158 5.68359375 4.578125 C6.27527344 5.05507812 6.86695313 5.53203125 7.4765625 6.0234375 C15.919354 13.44116602 21.06244868 25.66099016 21.9296875 36.71484375 C22.47171305 51.64518402 17.66063299 64.36750376 7.55859375 75.328125 C2.59235871 80.07587931 -2.99936694 82.97799411 -9.31640625 85.578125 C-10.21617187 85.95324219 -11.1159375 86.32835937 -12.04296875 86.71484375 C-22.98499151 89.60050846 -37.36965112 89.11164407 -47.31640625 83.578125 C-50.44741129 81.73112834 -53.39535187 79.73923027 -56.31640625 77.578125 C-57.18265625 77.000625 -58.04890625 76.423125 -58.94140625 75.828125 C-67.49120224 67.72831827 -72.76350084 56.77200192 -73.5546875 45.046875 C-73.8011202 31.86921081 -71.50554642 21.24200534 -63.31640625 10.578125 C-62.45015625 9.27875 -62.45015625 9.27875 -61.56640625 7.953125 C-45.75438016 -8.73734699 -19.46368824 -11.94735669 0 0 Z " fill="#DE3449" transform="translate(226.31640625,159.421875)"/>
</svg>
